<?xml version="1.0" standalone="no"?>
<!DOCTYPE svg PUBLIC "-//W3C//DTD SVG 20010904//EN"
 "http://www.w3.org/TR/2001/REC-SVG-20010904/DTD/svg10.dtd">
<svg version="1.0" xmlns="http://www.w3.org/2000/svg"
 width="52.000000pt" height="46.000000pt" viewBox="0 0 52.000000 46.000000"
 preserveAspectRatio="xMidYMid meet">
<metadata>
Created by potrace 1.10, written by Peter Selinger 2001-2011
</metadata>
<g transform="translate(0.000000,46.000000) scale(0.100000,-0.100000)"
fill="#000000" stroke="none">
<path d="M172 448 c-17 -22 -61 -155 -74 -225 l-12 -68 -11 69 c-5 38 -15 71
-21 73 -11 4 -44 -75 -44 -104 0 -23 16 -14 26 15 9 24 12 15 23 -65 10 -65
18 -93 27 -93 8 0 14 3 14 8 0 4 7 47 15 97 16 102 57 229 81 256 9 10 14 25
11 34 -8 18 -21 19 -35 3z"/>
<path d="M355 359 c-4 -6 -5 -13 -2 -16 7 -7 27 6 27 18 0 12 -17 12 -25 -2z"/>
<path d="M409 344 c-22 -11 -27 -21 -27 -55 -1 -49 21 -49 28 1 7 45 28 51 28
8 0 -30 -5 -36 -59 -66 l-59 -33 0 51 c0 27 -4 50 -10 50 -5 0 -10 -15 -10
-32 0 -37 -15 -67 -27 -55 -4 4 -2 22 5 39 12 34 8 48 -9 31 -13 -13 -27 -73
-22 -90 6 -18 28 -16 47 3 9 8 16 11 16 5 0 -5 -33 -34 -72 -65 -88 -65 -122
-101 -113 -115 4 -7 34 14 78 54 39 36 75 65 79 65 4 0 8 -30 10 -67 2 -50 7
-68 17 -68 11 0 14 17 12 82 l-2 82 43 27 c23 15 66 37 94 50 29 13 55 27 58
33 9 14 -14 25 -27 12 -20 -20 -27 -12 -27 29 0 43 -8 47 -51 24z"/>
<path d="M347 313 c-10 -10 -8 -83 2 -83 8 0 21 47 21 76 0 15 -12 18 -23 7z"/>
<path d="M156 274 c-4 -10 -1 -14 6 -12 15 5 23 28 10 28 -5 0 -13 -7 -16 -16z"/>
<path d="M197 253 c-10 -17 -11 -88 -2 -92 6 -3 14 9 19 25 4 16 12 37 17 46
5 10 9 20 9 23 0 8 -38 6 -43 -2z"/>
<path d="M152 228 c-7 -7 -12 -32 -12 -56 0 -63 23 -49 27 16 4 56 3 58 -15
40z"/>
</g>
</svg>
